<svg width="407" height="132" viewBox="0 0 407 132" fill="none" xmlns="http://www.w3.org/2000/svg">
<g clip-path="url(#clip0_1254_7694)">
<path d="M41.0675 93.6072C33.531 93.6072 29.9119 87.82 31.7961 81.1213C35.7047 67.2447 60.8098 46.6783 77.9161 46.6783C90.4058 46.6783 89.4461 57.8233 82.1349 67.3353L78.0917 71.7991C63.5892 86.0145 50.1429 93.6072 41.0675 93.6072ZM102.22 0.0239258C80.3854 0.0326899 56.3335 13.3717 41.2401 26.0066L42.4308 27.7302C65.8624 11.3267 98.387 0.654941 107.354 16.6582C112.088 25.1039 104.048 42.1501 92.7317 55.6293C95.4467 49.6756 93.6562 38.2501 77.8781 38.2501C51.6379 38.2472 0 72.9531 0 108.462C0 122.692 9.87995 131.977 26.1554 131.977C69.7331 131.977 128.837 60.6483 128.837 24.8235C128.834 12.171 121.544 0.0239258 102.22 0.0239258ZM158.319 93.6072C155.788 93.6072 153.676 92.7162 152.357 91.1124C150.979 89.418 150.569 87.0253 151.224 84.5451C152.667 79.1668 158.468 74.9572 164.428 74.9572H178.448L173.445 93.6101L158.319 93.6072ZM198.635 37.6804C194.618 32.755 188.132 30.5552 183.48 30.5552H157.991L153.664 46.6666H177.699L179.998 46.909C180.025 46.909 182.213 47.1632 183.421 48.8021C184.41 50.1664 184.551 52.2026 183.845 54.8639L182.707 59.0999H167.567C154.53 59.0999 136.362 68.4337 132.316 83.5168C130.3 91.0393 132.064 97.554 135.979 102.342C139.864 107.092 147.187 109.707 155.104 109.707H169.126L169.121 109.713H186.95L195.308 78.5358L201.464 55.6177C203.88 46.6169 201.262 40.891 198.635 37.6804ZM373.694 30.5552C366.801 30.5552 360.4 32.5914 355.184 36.4505C349.923 40.3418 347.021 45.0218 345.292 51.4664C341.544 65.4364 352.533 72.1789 361.377 76.9554C367.711 80.388 373.185 83.3444 372.006 87.7265C371.164 90.8728 369.792 93.6218 361.995 93.6218H338.197L333.876 109.736H360.213C367.275 109.736 373.797 108.264 379.048 104.238C384.312 100.201 387.275 94.5683 389.118 87.7002C390.88 81.1592 389.683 74.9163 385.476 70.2508C381.968 66.3449 376.91 63.6251 372.46 61.2238C366.758 58.1563 361.38 55.2642 362.322 51.7556C362.89 49.6405 365.008 46.6783 369.61 46.6783H392.752L397.079 30.5669H373.688V30.5552H373.694ZM235.583 30.5552C228.69 30.5552 222.286 32.5914 217.072 36.4505C211.812 40.3418 208.912 45.0218 207.172 51.4664C203.424 65.4364 214.424 72.1789 223.26 76.9554C229.597 80.388 235.074 83.3444 233.895 87.7265C233.049 90.8728 231.677 93.6218 223.877 93.6218H200.089L195.762 109.736H222.101C229.17 109.736 235.691 108.264 240.937 104.238C246.203 100.201 249.167 94.5683 251.007 87.7002C252.768 81.1592 251.569 74.9163 247.37 70.2508C243.865 66.3449 238.801 63.6251 234.342 61.2238C228.646 58.1563 223.269 55.2642 224.214 51.7556C224.778 49.6405 226.899 46.6783 231.493 46.6783H254.629L258.959 30.5669H235.58L235.583 30.5552ZM271.524 30.5552L250.866 109.721H268.318L288.964 30.5552H271.524ZM335.403 30.5552C304.678 30.6662 288.602 51.1012 283.49 70.1369C277.437 92.7103 289.47 109.724 311.477 109.724H326.228L330.55 93.6101H315.807C307.569 93.6101 296.24 87.1334 300.807 70.1369C304.432 56.6226 317.618 46.6666 332.103 46.6666H341.462L345.789 30.5552H335.403ZM395.859 106.102H397.383V102.678H398.598C399.414 102.678 399.984 102.766 400.297 102.953C400.847 103.277 401.128 103.946 401.128 104.951V105.643L401.155 105.921C401.166 105.962 401.169 105.991 401.181 106.023L401.201 106.102H402.638L402.585 105.997C402.536 105.851 402.51 105.698 402.509 105.544C402.493 105.328 402.485 105.112 402.486 104.895V104.259C402.469 103.772 402.305 103.303 402.015 102.912C401.699 102.45 401.195 102.167 400.511 102.056C401.046 101.974 401.471 101.843 401.775 101.632C402.345 101.264 402.626 100.7 402.623 99.9174C402.626 98.8277 402.179 98.0944 401.28 97.7176C400.774 97.5131 399.984 97.4138 398.902 97.4138H395.859V106.102ZM400.23 101.419C399.914 101.545 399.425 101.612 398.776 101.612H397.386V98.4654H398.691C399.543 98.4654 400.163 98.5677 400.549 98.7839C400.938 99.0001 401.131 99.4237 401.131 100.058C401.131 100.727 400.83 101.179 400.23 101.419ZM404.677 96.1955C403.944 95.4506 403.066 94.8622 402.098 94.466C401.13 94.0698 400.091 93.874 399.045 93.8906C396.871 93.8906 395.002 94.6618 393.457 96.1955C392.71 96.9189 392.119 97.7875 391.721 98.7477C391.323 99.7078 391.126 100.739 391.143 101.778C391.143 103.981 391.909 105.857 393.443 107.399C394.981 108.947 396.854 109.724 399.051 109.724C401.248 109.724 403.124 108.947 404.671 107.399C406.222 105.848 407 103.975 407 101.778C407 99.596 406.225 97.7322 404.677 96.1955ZM403.881 96.9639C405.215 98.2931 405.879 99.8998 405.879 101.775C405.879 103.674 405.215 105.29 403.881 106.628C402.562 107.966 400.95 108.638 399.057 108.638C397.164 108.638 395.558 107.969 394.224 106.628C393.583 105.994 393.078 105.238 392.738 104.404C392.398 103.57 392.23 102.676 392.246 101.775C392.246 99.894 392.913 98.2931 394.232 96.9639C394.856 96.3182 395.605 95.8069 396.433 95.4617C397.262 95.1165 398.153 94.9447 399.051 94.9569C399.951 94.9435 400.844 95.1147 401.675 95.4599C402.506 95.8051 403.257 96.317 403.881 96.9639Z" fill="white"/>
</g>
<defs>
<clipPath id="clip0_1254_7694">
<rect width="407" height="132" fill="white"/>
</clipPath>
</defs>
</svg>
