<?xml version="1.0" encoding="UTF-8"?>
<svg id="Layer_2" data-name="Layer 2" xmlns="http://www.w3.org/2000/svg" viewBox="0 0 463.63 553.75">
  <defs>
    <style>
      .cls-1 {
        fill: #f3af42;
      }

      .cls-2, .cls-3 {
        fill: #e7902a;
      }

      .cls-4 {
        fill: #c1282e;
      }

      .cls-5 {
        fill: #c12a2f;
      }

      .cls-3 {
        stroke: #dd6f24;
        stroke-miterlimit: 10;
        stroke-width: 20px;
      }
    </style>
  </defs>
  <g id="Layer_1-2" data-name="Layer 1">
    <polygon class="cls-5" points="357.3 235.7 463.63 494.26 429.51 488.83 424.31 488 373.15 479.86 345.21 517.98 339.41 525.89 318.98 553.75 212.65 295.19 357.3 235.7"/>
    <polygon class="cls-4" points="106.33 235.7 0 494.26 34.12 488.83 39.32 488 90.48 479.86 118.43 517.98 124.23 525.89 144.65 553.75 250.98 295.19 106.33 235.7"/>
    <path class="cls-2" d="M427.18,195.62c0,12.57-15.72,23.44-18.07,35.32-2.43,12.25,7.89,28.29,3.22,39.56-4.75,11.46-23.44,15.48-30.26,25.67s-3.48,29.06-12.19,37.77-27.5,5.31-37.77,12.19-14.21,25.51-25.67,30.26c-11.27,4.67-27.31-5.65-39.56-3.23-11.88,2.36-22.75,18.07-35.32,18.07s-23.44-15.71-35.33-18.07c-12.25-2.42-28.29,7.9-39.55,3.23-11.47-4.75-15.49-23.44-25.68-30.26s-29.06-3.49-37.77-12.19-5.31-27.5-12.18-37.77-25.51-14.21-30.27-25.67c-4.67-11.27,5.65-27.31,3.23-39.56-2.35-11.88-18.07-22.75-18.07-35.32s15.72-23.45,18.07-35.33c2.42-12.25-7.9-28.29-3.22-39.55,4.75-11.47,23.43-15.49,30.26-25.68s3.48-29.06,12.19-37.77,27.49-5.31,37.76-12.19,14.21-25.5,25.68-30.26c11.27-4.67,27.3,5.65,39.55,3.23,11.89-2.35,22.75-18.07,35.33-18.07s23.44,15.72,35.32,18.07c12.25,2.42,28.29-7.9,39.56-3.23,11.46,4.76,15.48,23.44,25.67,30.26s29.07,3.49,37.77,12.19,5.32,27.5,12.19,37.77,25.51,14.21,30.26,25.68c4.67,11.26-5.65,27.3-3.22,39.55,2.39,11.88,18.07,22.75,18.07,35.33Z"/>
    <circle class="cls-3" cx="231.6" cy="195.62" r="150.16"/>
    <polygon class="cls-1" points="231.6 107.98 260.07 165.68 323.74 174.93 277.67 219.84 288.54 283.25 231.6 253.31 174.65 283.25 185.52 219.84 139.45 174.93 203.12 165.68 231.6 107.98"/>
  </g>
</svg>