<svg width="48" height="48" viewBox="0 0 48 48" fill="none" xmlns="http://www.w3.org/2000/svg">
<path d="M24.0001 33.3333C29.1547 33.3333 33.3334 29.1546 33.3334 24C33.3334 18.8453 29.1547 14.6666 24.0001 14.6666C18.8454 14.6666 14.6667 18.8453 14.6667 24C14.6667 29.1546 18.8454 33.3333 24.0001 33.3333Z" stroke="black" stroke-width="2" stroke-linecap="round" stroke-linejoin="round"/>
<path d="M24 20V24L26 26" stroke="black" stroke-width="2" stroke-linecap="round" stroke-linejoin="round"/>
<path d="M30.0134 31.1333L29.5467 36.2399C29.4866 36.9048 29.1794 37.5229 28.6857 37.9722C28.1919 38.4215 27.5476 38.6693 26.8801 38.6666H21.1067C20.4392 38.6693 19.7949 38.4215 19.3011 37.9722C18.8074 37.5229 18.5001 36.9048 18.4401 36.2399L17.9734 31.1333M17.9867 16.8666L18.4534 11.7599C18.5133 11.0974 18.8186 10.4811 19.3095 10.0321C19.8005 9.58317 20.4415 9.3339 21.1067 9.33327H26.9067C27.5743 9.33057 28.2186 9.57834 28.7123 10.0276C29.2061 10.4769 29.5133 11.0951 29.5734 11.7599L30.0401 16.8666" stroke="black" stroke-width="2" stroke-linecap="round" stroke-linejoin="round"/>
</svg>
