<?xml version="1.0" encoding="UTF-8"?>
<svg width="32px" height="32px" viewBox="0 0 32 32" version="1.1" xmlns="http://www.w3.org/2000/svg" xmlns:xlink="http://www.w3.org/1999/xlink">
    <title></title>
    <g id="Page-1" stroke="none" stroke-width="1" fill="none" fill-rule="evenodd">
        <g id="" transform="translate(0.000739, 0.624867)" fill="#000000" fill-rule="nonzero">
            <path d="M20.2726119,15.6251773 L30.7921868,5.10569786 C31.4005342,4.49725509 31.4005342,3.51001379 30.7921868,2.90061736 L28.3478299,0.456260547 C27.7393872,-0.152086849 26.7521459,-0.152086849 26.1427494,0.456260547 L15.6242237,10.9767891 L5.10474418,0.457214219 C4.49630142,-0.151133177 3.50906012,-0.151133177 2.89966369,0.457214219 L0.456260547,2.90061736 C-0.152086849,3.50896476 -0.152086849,4.49630142 0.456260547,5.10569786 L10.9758354,15.6251773 L0.456260547,26.1446568 C-0.152086849,26.7530996 -0.152086849,27.7403409 0.456260547,28.3497373 L2.90061736,30.7940941 C3.50906012,31.4024415 4.49630142,31.4024415 5.10569786,30.7940941 L15.6242237,20.2735656 L26.1437031,30.7931404 C26.7521459,31.4014878 27.7393872,31.4014878 28.3487836,30.7931404 L30.7931404,28.3487836 C31.4014878,27.7403409 31.4014878,26.7530996 30.7931404,26.1437031 L20.2726119,15.6251773 Z" id="Path"></path>
        </g>
    </g>
</svg>