<svg xmlns="http://www.w3.org/2000/svg" viewBox="0 0 463.63 553.75"><defs><style>.cls-1{fill:#c12a2f;}.cls-2{fill:#c1282e;}.cls-3,.cls-4{fill:#e7902a;}.cls-4{stroke:#dd6f24;stroke-miterlimit:10;stroke-width:20px;}.cls-5{fill:#f3af42;}</style></defs><g id="Layer_2" data-name="Layer 2"><g id="Layer_1-2" data-name="Layer 1"><polygon class="cls-1" points="357.3 235.7 463.63 494.27 429.51 488.83 424.31 488.01 373.15 479.86 345.21 517.98 339.41 525.89 318.98 553.75 212.65 295.19 357.3 235.7"/><polygon class="cls-2" points="106.33 235.7 0 494.27 34.12 488.83 39.32 488.01 90.48 479.86 118.43 517.98 124.23 525.89 144.65 553.75 250.98 295.19 106.33 235.7"/><path class="cls-3" d="M427.21,195.62c0,12.57-15.71,23.44-18.07,35.33-2.42,12.24,7.9,28.28,3.23,39.55C407.61,282,388.93,286,382.11,296.17s-3.49,29.07-12.19,37.77-27.5,5.32-37.77,12.19-14.21,25.51-25.67,30.26c-11.27,4.67-27.31-5.65-39.56-3.22-11.88,2.35-22.75,18.07-35.32,18.07s-23.45-15.72-35.33-18.07c-12.25-2.43-28.29,7.89-39.55,3.22C145.25,371.64,141.23,353,131,346.13S102,342.65,93.27,333.94,88,306.44,81.08,296.17,55.58,282,50.82,270.5c-4.67-11.27,5.65-27.31,3.23-39.55C51.7,219.06,36,208.19,36,195.62s15.72-23.44,18.07-35.33c2.42-12.25-7.9-28.28-3.23-39.55,4.76-11.47,23.44-15.49,30.26-25.68S84.57,66,93.27,57.29,120.77,52,131,45.11s14.21-25.51,25.68-30.26c11.26-4.68,27.3,5.64,39.55,3.22C208.15,15.72,219,0,231.6,0S255,15.72,266.92,18.07c12.25,2.42,28.29-7.9,39.56-3.22C317.94,19.6,322,38.28,332.15,45.11s29.06,3.48,37.77,12.19,5.31,27.49,12.19,37.76,25.51,14.21,30.26,25.68c4.67,11.27-5.65,27.31-3.23,39.55C411.5,172.18,427.21,183,427.21,195.62Z"/><circle class="cls-4" cx="231.6" cy="195.62" r="150.16"/><polygon class="cls-5" points="231.6 107.98 260.07 165.68 323.74 174.93 277.67 219.84 288.54 283.25 231.6 253.31 174.65 283.25 185.52 219.84 139.45 174.93 203.12 165.68 231.6 107.98"/></g></g></svg>