<svg xmlns="http://www.w3.org/2000/svg" viewBox="0 0 553.75 553.75"><defs><style>.cls-1{fill:#fff;}.cls-2{fill:#f6f6f6;stroke:#ededed;stroke-miterlimit:10;stroke-width:20px;}</style></defs><g id="Layer_2" data-name="Layer 2"><g id="Layer_1-2" data-name="Layer 1"><path class="cls-1" d="M553.75,276.88c0,17.79-22.25,33.18-25.57,50-3.43,17.33,11.17,40,4.56,56-6.73,16.23-33.17,21.92-42.83,36.34s-4.93,41.14-17.25,53.46-38.92,7.52-53.46,17.25-20.11,36.1-36.34,42.83c-15.95,6.61-38.65-8-56-4.56-16.82,3.32-32.21,25.57-50,25.57s-33.18-22.25-50-25.57c-17.33-3.43-40,11.17-56,4.56C154.67,526,149,499.57,134.55,489.91S93.42,485,81.09,472.66s-7.52-38.92-17.25-53.46S27.74,399.09,21,382.86c-6.61-15.95,8-38.65,4.57-56C22.25,310.06,0,294.67,0,276.88s22.25-33.18,25.58-50c3.43-17.33-11.18-40-4.57-56,6.73-16.22,33.18-21.92,42.83-36.34S68.77,93.42,81.1,81.09,120,73.57,134.55,63.84,154.67,27.74,170.89,21c16-6.61,38.65,8,56,4.57C243.7,22.25,259.08,0,276.88,0s33.18,22.25,50,25.58c17.33,3.43,40-11.18,56-4.57,16.23,6.73,21.92,33.18,36.34,42.83s41.14,4.93,53.46,17.26,7.52,38.92,17.25,53.45,36.1,20.12,42.83,36.34c6.61,16-8,38.65-4.56,56C531.5,243.7,553.75,259.08,553.75,276.88Z"/><circle class="cls-2" cx="276.88" cy="276.88" r="212.53"/><polygon class="cls-1" points="276.88 152.84 317.18 234.5 407.3 247.6 342.09 311.16 357.48 400.91 276.88 358.54 196.27 400.91 211.67 311.16 146.46 247.6 236.57 234.5 276.88 152.84"/></g></g></svg>