<?xml version="1.0" encoding="UTF-8"?>
<svg id="Layer_2" data-name="Layer 2" xmlns="http://www.w3.org/2000/svg" viewBox="0 0 463.64 553.75">
  <defs>
    <style>
      .cls-1 {
        fill: #c1282e;
      }

      .cls-2, .cls-3 {
        fill: #b2b2b2;
      }

      .cls-4 {
        fill: #c12a2f;
      }

      .cls-5 {
        fill: #dadada;
      }

      .cls-3 {
        stroke: #9d9d9c;
        stroke-miterlimit: 10;
        stroke-width: 20px;
      }
    </style>
  </defs>
  <g id="Layer_1-2" data-name="Layer 1">
    <polygon class="cls-4" points="357.31 235.7 463.64 494.27 429.51 488.83 424.32 488.01 373.16 479.86 345.21 517.98 339.41 525.89 318.99 553.75 212.66 295.19 357.31 235.7"/>
    <polygon class="cls-1" points="106.34 235.7 0 494.27 34.13 488.83 39.32 488.01 90.49 479.86 118.43 517.98 124.23 525.89 144.66 553.75 250.99 295.19 106.34 235.7"/>
    <path class="cls-2" d="M427.22,195.62c0,12.57-15.72,23.44-18.07,35.33-2.42,12.24,7.9,28.28,3.23,39.55-4.76,11.46-23.44,15.49-30.27,25.68s-3.48,29.06-12.18,37.76-27.5,5.32-37.77,12.19-14.21,25.51-25.68,30.25c-11.26,4.67-27.3-5.65-39.55-3.22-11.88,2.35-22.75,18.07-35.33,18.07s-23.47-15.71-35.32-18.06c-12.25-2.43-28.29,7.89-39.56,3.22-11.46-4.75-15.48-23.44-25.67-30.26s-29.06-3.48-37.77-12.19-5.32-27.5-12.19-37.77-25.51-14.21-30.26-25.67c-4.67-11.27,5.65-27.31,3.22-39.55-2.35-11.89-18.07-22.76-18.07-35.33s15.72-23.44,18.08-35.33c2.42-12.24-7.9-28.28-3.23-39.55,4.75-11.47,23.44-15.49,30.26-25.68s3.48-29.06,12.19-37.76,27.5-5.32,37.77-12.19,14.21-25.51,25.67-30.26c11.27-4.68,27.31,5.64,39.56,3.22,11.88-2.35,22.75-18.07,35.32-18.07s23.45,15.72,35.33,18.07c12.25,2.42,28.29-7.9,39.55-3.22,11.47,4.75,15.49,23.44,25.68,30.26s29.06,3.48,37.77,12.19,5.31,27.49,12.19,37.76,25.5,14.22,30.26,25.68c4.67,11.27-5.65,27.31-3.23,39.55,2.35,11.89,18.07,22.75,18.07,35.33Z"/>
    <circle class="cls-3" cx="231.6" cy="195.62" r="150.16"/>
    <polygon class="cls-5" points="231.6 107.98 260.08 165.68 323.75 174.93 277.67 219.84 288.55 283.25 231.6 253.31 174.65 283.25 185.53 219.84 139.46 174.93 203.13 165.68 231.6 107.98"/>
  </g>
</svg>