<?xml version="1.0" encoding="utf-8"?>
<!-- Generator: Adobe Illustrator 24.0.3, SVG Export Plug-In . SVG Version: 6.00 Build 0)  -->
<svg version="1.1" id="Laag_1" xmlns="http://www.w3.org/2000/svg" xmlns:xlink="http://www.w3.org/1999/xlink" x="0px" y="0px"
	 viewBox="0 0 196.3 60.9" style="enable-background:new 0 0 196.3 60.9;" xml:space="preserve">
<style type="text/css">
	.st0{fill:#FFEB66;}
</style>
<g transform="translate(888.244 1527.788)">
	<g transform="translate(-888.244 -1527.788)">
	</g>
</g>
<g transform="translate(0 0.554)">
</g>
<g transform="translate(34.493 3.441)">
</g>
<g transform="translate(262.155 0)">
	<g transform="translate(0 0)">
		<g transform="translate(53.115 0.749)">
			<g transform="translate(86.358)">
			</g>
		</g>
		<g transform="translate(0 0)">
		</g>
	</g>
</g>
<g>
	<path class="st0" d="M52.5,6.5c4.8,3.6,4.6,9.1,2.6,11.8c-1.9,2.7-11.1,4.7-14.3,10.3c-3.1,5.5-0.2,14.7-3,21.7
		c-2.8,7-13.7,11.1-17.8,7.8s-1-18.8-4.4-26.9C12.4,23,7.8,25.3,1.7,19.2C-2.5,14.5,1.7,6,7.6,2.6c6-3.4,18.6-2.8,28.4-1.7
		C40.4,1.3,47.7,2.9,52.5,6.5z"/>
	<path class="st0" d="M82.6,20.7c-2.2-6.8-2.7-20.3-12-19.3c-8.9,0.9-9.7,12.8-12.1,19.9c-2.5,10.4-8.1,22.1-3.7,32.6
		c5.8,9.5,16.3,9.2,22.8,0.6c6.5-8.2,7.4-19.7,5.9-29.8C83.2,23.3,82.9,22,82.6,20.7C81.8,18.3,82.9,21.6,82.6,20.7z"/>
	<path class="st0" d="M124.4,9.5c16.1,12.5,17.9,48-6,48.6c-8.2,0.2-25.9-1-29.1-7.4C81.6,32.8,101.8-10.9,124.4,9.5z"/>
	<path class="st0" d="M196.1,45.4c-0.8-7.2-14.4-10.9-9.2-18.8c2.3-4.2,9-16,2.2-22.9c-5-5.1-12.8-2.1-18.8-0.8
		c-7,1.5-14.5,1.7-20.5,5.9c-17.8,10.9-10.9,42.4,8.4,48.5c9.3,3,31.3,7.7,37.5-7.3C196.3,48.6,196.5,46.9,196.1,45.4z"/>
</g>
</svg>
